<svg width="200" height="150" viewBox="0 0 200 150" xmlns="http://www.w3.org/2000/svg">
  <defs>
    <linearGradient id="coffretGradient" x1="0%" y1="0%" x2="100%" y2="100%">
      <stop offset="0%" style="stop-color:#51cf66;stop-opacity:1" />
      <stop offset="100%" style="stop-color:#40c057;stop-opacity:1" />
    </linearGradient>
  </defs>
  <rect x="40" y="40" width="120" height="80" rx="10" fill="url(#coffretGradient)"/>
  <rect x="50" y="50" width="100" height="60" rx="5" fill="#fff"/>
  <rect x="60" y="60" width="80" height="40" rx="3" fill="#f8f9fa"/>
  <circle cx="70" cy="70" r="2" fill="#667eea"/>
  <circle cx="80" cy="70" r="2" fill="#667eea"/>
  <circle cx="90" cy="70" r="2" fill="#667eea"/>
  <circle cx="100" cy="70" r="2" fill="#667eea"/>
  <circle cx="110" cy="70" r="2" fill="#667eea"/>
  <circle cx="120" cy="70" r="2" fill="#667eea"/>
  <circle cx="130" cy="70" r="2" fill="#667eea"/>
  <circle cx="70" cy="80" r="2" fill="#667eea"/>
  <circle cx="80" cy="80" r="2" fill="#667eea"/>
  <circle cx="90" cy="80" r="2" fill="#667eea"/>
  <circle cx="100" cy="80" r="2" fill="#667eea"/>
  <circle cx="110" cy="80" r="2" fill="#667eea"/>
  <circle cx="120" cy="80" r="2" fill="#667eea"/>
  <circle cx="130" cy="80" r="2" fill="#667eea"/>
  <text x="100" y="130" text-anchor="middle" font-family="Arial" font-size="12" fill="#333">Coffret 12 Ports</text>
</svg>


