<svg width="200" height="150" viewBox="0 0 200 150" xmlns="http://www.w3.org/2000/svg">
  <defs>
    <linearGradient id="switchGradient2" x1="0%" y1="0%" x2="100%" y2="100%">
      <stop offset="0%" style="stop-color:#ff6b6b;stop-opacity:1" />
      <stop offset="100%" style="stop-color:#ff5252;stop-opacity:1" />
    </linearGradient>
  </defs>
  <rect x="20" y="30" width="160" height="100" rx="10" fill="url(#switchGradient2)"/>
  <rect x="30" y="40" width="140" height="80" rx="5" fill="#fff"/>
  <circle cx="40" cy="50" r="2" fill="#51cf66"/>
  <circle cx="50" cy="50" r="2" fill="#51cf66"/>
  <circle cx="60" cy="50" r="2" fill="#51cf66"/>
  <circle cx="70" cy="50" r="2" fill="#51cf66"/>
  <circle cx="80" cy="50" r="2" fill="#51cf66"/>
  <circle cx="90" cy="50" r="2" fill="#51cf66"/>
  <circle cx="100" cy="50" r="2" fill="#51cf66"/>
  <circle cx="110" cy="50" r="2" fill="#51cf66"/>
  <circle cx="120" cy="50" r="2" fill="#51cf66"/>
  <circle cx="130" cy="50" r="2" fill="#51cf66"/>
  <circle cx="140" cy="50" r="2" fill="#51cf66"/>
  <circle cx="150" cy="50" r="2" fill="#51cf66"/>
  <circle cx="160" cy="50" r="2" fill="#51cf66"/>
  <circle cx="40" cy="70" r="2" fill="#51cf66"/>
  <circle cx="50" cy="70" r="2" fill="#51cf66"/>
  <circle cx="60" cy="70" r="2" fill="#51cf66"/>
  <circle cx="70" cy="70" r="2" fill="#51cf66"/>
  <circle cx="80" cy="70" r="2" fill="#51cf66"/>
  <circle cx="90" cy="70" r="2" fill="#51cf66"/>
  <circle cx="100" cy="70" r="2" fill="#51cf66"/>
  <circle cx="110" cy="70" r="2" fill="#51cf66"/>
  <circle cx="120" cy="70" r="2" fill="#51cf66"/>
  <circle cx="130" cy="70" r="2" fill="#51cf66"/>
  <circle cx="140" cy="70" r="2" fill="#51cf66"/>
  <circle cx="150" cy="70" r="2" fill="#51cf66"/>
  <circle cx="160" cy="70" r="2" fill="#51cf66"/>
  <text x="100" y="140" text-anchor="middle" font-family="Arial" font-size="12" fill="#333">Switch 48 Ports</text>
</svg>


